<svg width="60" height="60" viewBox="0 0 60 60" fill="none" xmlns="http://www.w3.org/2000/svg">
<path d="M30 -1.31134e-06C22.0435 -9.63552e-07 14.4129 3.1607 8.7868 8.7868C3.1607 14.4129 -1.05843e-06 22.0435 -1.31134e-06 30C-1.56425e-06 37.9565 3.1607 45.5871 8.78679 51.2132C14.4129 56.8393 22.0435 60 30 60L30 59.2934C22.2309 59.2934 14.78 56.2071 9.28646 50.7135C3.79289 45.22 0.706635 37.7691 0.706635 30C0.706635 22.2309 3.79289 14.78 9.28646 9.28646C14.78 3.79289 22.2309 0.706634 30 0.706633L30 -1.31134e-06Z" fill="#F93801"/>
<path d="M42.9998 29.6C42.9998 29.4149 42.8878 29.1691 42.7742 29.0498L36.3744 22.2497C36.0756 21.9408 35.5915 21.905 35.2432 22.2185C34.9317 22.4988 34.924 23.0454 35.212 23.3498L40.3493 28.7998H19.8C19.3582 28.7998 19 29.158 19 29.5998C19 30.0417 19.3582 30.3998 19.8 30.3998H40.3493L35.212 35.8499C34.924 36.1542 34.9444 36.6874 35.2432 36.9811C35.5586 37.2912 36.0802 37.2636 36.3744 36.9499L42.7742 30.1499C42.9623 29.9655 42.9966 29.7878 42.9998 29.6Z" fill="#F93801"/>
</svg>
