<svg width="98" height="34" viewBox="0 0 98 34" fill="none" xmlns="http://www.w3.org/2000/svg">
<path d="M0.927979 22.6159L4.57598 21.8159C4.61865 22.4985 4.88531 23.0745 5.37598 23.5439C5.88798 23.9919 6.58131 24.2159 7.45598 24.2159C8.11731 24.2159 8.62931 24.0665 8.99198 23.7679C9.35464 23.4692 9.53598 23.0959 9.53598 22.6479C9.53598 21.8585 8.97065 21.3465 7.83998 21.1119L5.75998 20.6319C4.28798 20.3119 3.17865 19.7359 2.43198 18.9039C1.70665 18.0719 1.34398 17.0799 1.34398 15.9279C1.34398 14.4985 1.89865 13.2825 3.00798 12.2799C4.13865 11.2772 5.54665 10.7759 7.23198 10.7759C8.29865 10.7759 9.23731 10.9359 10.048 11.2559C10.8586 11.5545 11.488 11.9492 11.936 12.4399C12.384 12.9092 12.7253 13.3892 12.96 13.8799C13.1946 14.3705 13.344 14.8505 13.408 15.3199L9.85598 16.1199C9.77065 15.5652 9.51465 15.0745 9.08798 14.6479C8.68265 14.2212 8.07465 14.0079 7.26398 14.0079C6.70931 14.0079 6.22931 14.1572 5.82398 14.4559C5.43998 14.7545 5.24798 15.1279 5.24798 15.5759C5.24798 16.3439 5.72798 16.8132 6.68798 16.9839L8.92798 17.4639C10.4426 17.7839 11.5946 18.3705 12.384 19.2239C13.1946 20.0772 13.6 21.1012 13.6 22.2959C13.6 23.7039 13.0666 24.9199 12 25.9439C10.9333 26.9679 9.42931 27.4799 7.48798 27.4799C6.37865 27.4799 5.38665 27.3199 4.51198 26.9999C3.63731 26.6585 2.95465 26.2319 2.46398 25.7199C1.99465 25.1865 1.63198 24.6639 1.37598 24.1519C1.14131 23.6185 0.991979 23.1065 0.927979 22.6159Z" fill="#505050"/>
<path d="M25.601 26.9999C25.5156 26.5732 25.473 26.0079 25.473 25.3039C25.0676 26.0079 24.4596 26.5412 23.649 26.9039C22.8596 27.2452 22.017 27.4159 21.121 27.4159C19.265 27.4159 17.8036 26.8292 16.737 25.6559C15.6703 24.4612 15.137 22.9785 15.137 21.2079V11.2559H19.393V20.3439C19.393 21.2825 19.6383 22.0505 20.129 22.6479C20.6196 23.2239 21.3343 23.5119 22.273 23.5119C23.1903 23.5119 23.9156 23.2345 24.449 22.6799C24.9823 22.1039 25.249 21.3465 25.249 20.4079V11.2559H29.505V24.1519C29.505 25.1545 29.5583 26.1039 29.665 26.9999H25.601Z" fill="#505050"/>
<path d="M36.703 17.9439V26.9999H32.447V11.2559H36.575V13.2079C37.023 12.4399 37.663 11.8532 38.495 11.4479C39.327 11.0425 40.2016 10.8399 41.119 10.8399C42.975 10.8399 44.383 11.4265 45.343 12.5999C46.3243 13.7519 46.815 15.2452 46.815 17.0799V26.9999H42.559V17.8159C42.559 16.8772 42.3136 16.1199 41.823 15.5439C41.3536 14.9679 40.6283 14.6799 39.647 14.6799C38.751 14.6799 38.0363 14.9892 37.503 15.6079C36.9696 16.2265 36.703 17.0052 36.703 17.9439Z" fill="#505050"/>
<path d="M53.7905 17.9439V26.9999H49.5345V11.2559H53.6625V13.2079C54.1105 12.4399 54.7505 11.8532 55.5825 11.4479C56.4145 11.0425 57.2891 10.8399 58.2065 10.8399C60.0625 10.8399 61.4705 11.4265 62.4305 12.5999C63.4118 13.7519 63.9025 15.2452 63.9025 17.0799V26.9999H59.6465V17.8159C59.6465 16.8772 59.4011 16.1199 58.9105 15.5439C58.4411 14.9679 57.7158 14.6799 56.7345 14.6799C55.8385 14.6799 55.1238 14.9892 54.5905 15.6079C54.0571 16.2265 53.7905 17.0052 53.7905 17.9439Z" fill="#505050"/>
<path d="M71.7807 33.2079H67.2687L70.9807 25.0159L64.2927 11.2559H69.0607L73.2527 20.4719L77.1247 11.2559H81.6687L71.7807 33.2079Z" fill="#505050"/>
<path d="M87.128 1.84794V0.491943H80.156V1.84794H82.916V8.99994H84.356V1.84794H87.128Z" fill="#505050"/>
<path d="M97.6691 8.99994V0.491943H95.7131L92.9891 6.98394L90.2291 0.491943H88.3091V8.99994H89.7131V2.75994L92.3411 8.99994H93.5891L96.2411 2.73594V8.99994H97.6691Z" fill="#505050"/>
</svg>
